<svg xmlns="http://www.w3.org/2000/svg" xmlns:xlink="http://www.w3.org/1999/xlink" width="1080" zoomAndPan="magnify" viewBox="0 0 810 809.999993" height="1080" preserveAspectRatio="xMidYMid meet" version="1.0"><defs><clipPath id="1f6fd9eb0b"><path d="M 49.640625 171 L 760.640625 171 L 760.640625 638.90625 L 49.640625 638.90625 Z M 49.640625 171 " clip-rule="nonzero"/></clipPath></defs><g clip-path="url(#1f6fd9eb0b)"><path fill="#ffffff" d="M 71.195312 171.082031 L 257.285156 357.171875 L 349.511719 264.917969 L 443.363281 171.082031 L 467.90625 171.082031 L 467.90625 286.089844 L 369.261719 384.734375 L 323.703125 430.28125 L 257.316406 496.667969 L 244.246094 483.613281 L 226.207031 465.585938 L 220.78125 460.164062 L 200.625 440.019531 L 148.304688 387.699219 L 148.304688 638.851562 L 49.640625 638.851562 L 49.640625 171.082031 Z M 471.394531 460.40625 L 671.980469 259.808594 L 760.332031 171.082031 L 620.828125 171.082031 L 417.464844 374.8125 L 417.566406 374.914062 L 258.765625 533.695312 L 258.765625 637.855469 L 357.414062 637.855469 L 357.414062 574.386719 L 401.621094 530.179688 L 509.308594 637.855469 L 648.859375 637.855469 Z M 471.394531 460.40625 " fill-opacity="1" fill-rule="nonzero"/></g></svg>